<svg xmlns="http://www.w3.org/2000/svg" version="1.1" xmlns:xlink="http://www.w3.org/1999/xlink" xmlns:svgjs="http://svgjs.dev/svgjs" viewBox="0 0 800 800">
	<defs>
		<linearGradient x1="50%" y1="0%" x2="50%" y2="100%" id="ccchaos-grad">
			<stop stop-color="#00ffff" stop-opacity="1" offset="0%">
			</stop>
			<stop stop-color="#3aa0ff" stop-opacity="1" offset="100%">
			</stop>
		</linearGradient>
	</defs>
	<g stroke-width="2" stroke="url(#ccchaos-grad)" fill="none" stroke-linecap="round">
		<path d="M377.99 102.87C387.34 106.81 396.63 112.13 405.82 118.17 415.02 123.91 424.15 129.17 433.19 133.52 442.26 136.27 451.27 137.81 460.23 138.27 469.25 137.44 478.24 136.24 487.21 135.13 496.28 134.07 505.38 134.02 514.49 135.29 523.74 137.69 533.05 141.79 542.41 147.53 551.94 154.51 561.52 162.83 571.15 172.2 580.93 182.14 590.73 192.56 600.51 203.13 610.36 213.5 620.13 223.62 629.71 233.33 639.25 242.4 648.5 250.97 657.33 259.07 665.94 266.48 673.99 273.57 681.35 280.44 688.27 286.81 694.34 293.19 699.44 299.69 703.91 305.91 707.3 312.43 709.51 319.31 711.01 326.07 711.3 333.29 710.38 340.99 708.8 348.65 706.09 356.83 702.31 365.53 698.12 374.21 693.06 383.43 687.26 393.2 681.43 402.98 675.28 413.09 668.98 423.53 663.05 434.01 657.2 444.84 651.54 456.01 646.5 467.24 641.76 478.82 637.35 490.68 633.66 502.55 630.28 514.62 627.19 526.76 624.74 538.68 622.48 550.42 620.33 561.72 618.65 572.39 616.93 582.21 615.09 590.87 609.33 606.79 596.75 610.08 590.63 606.56 586.23 604.93 581.22 604.17 575.64 604.94 569.9 608.22 563.59 613.93 556.75 622.24 549.77 633.22 542.29 646.21 534.37 660.44 526.33 675.07 517.89 688.81 509.08 700.41 500.21 709.07 491.01 713.71 481.52 713.78 472 709.89 462.23 702.04 452.23 691.25 442.23 679.59 432.02 668.01 421.64 658.16 411.26 651.99 400.95 649.83 390.75 651.74 380.54 657.75 370.44 666.35 360.46 676.16 350.47 686.4 340.6 694.99 330.87 700.78 321.12 703.51 311.5 702.15 302.03 696.8 292.55 688.16 283.22 676.57 274.06 662.99 264.9 648.47 255.91 633.83 247.13 619.94 238.36 607.5 229.8 596.87 221.51 588.23 213.25 581.82 205.26 577.24 197.59 574.1 189.98 572.52 182.72 571.56 175.83 570.77 169.05 570.39 162.67 569.43 156.73 567.63 150.93 565.44 145.59 562.08 140.74 557.55 136.05 552.38 131.86 546.09 128.21 538.8 124.71 530.99 121.74 522.41 119.33 513.23 117.05 503.75 115.31 493.88 114.13 483.77 113.05 473.55 112.51 463.23 112.51 452.9 112.56 442.55 113.13 432.25 114.23 422.05 115.32 411.85 116.88 401.98 118.86 392.42 120.78 382.83 123.1 373.48 125.78 364.33 128.36 355.07 131.27 345.89 134.5 336.75 137.58 327.38 140.97 317.91 144.63 308.29 148.14 298.34 151.92 288.15 155.96 277.69 159.85 266.94 164 255.95 168.42 244.83 172.7 233.64 177.26 222.53 182.09 211.71 186.82 201.29 191.84 191.54 197.16 182.73 202.4 174.83 207.96 168.2 213.82 162.99 219.65 158.87 225.81 156.12 232.26 154.66 238.72 153.75 245.49 153.55 252.56 153.71 259.64 153.32 267.02 152.49 274.68 150.89 282.36 147.83 290.31 143.66 298.51 138.43 306.72 131.98 315.16 125.05 323.82 118.17 332.48 111.52 341.35 106.05 350.38 102.3 359.42 100.22 368.63 100.41 377.98 102.87" stroke-dasharray="10 8" transform="rotate(0, 400, 400)" opacity="0.57">
		</path>
		<path d="M379.12 113.55C388.14 117.42 397.12 122.64 406.04 128.59 414.97 134.31 423.86 139.67 432.69 144.23 441.56 147.33 450.4 149.27 459.2 150.15 468.07 149.71 476.93 148.75 485.79 147.69 494.74 146.45 503.72 145.96 512.73 146.53 521.85 148.01 531.03 151.02 540.23 155.57 549.58 161.33 558.96 168.5 568.35 176.84 577.85 185.94 587.34 195.76 596.75 205.99 606.21 216.3 615.52 226.6 624.62 236.7 633.63 246.39 642.32 255.7 650.57 264.6 658.58 272.92 666.02 280.88 672.77 288.56 679.09 295.73 684.6 302.78 689.17 309.81 693.17 316.51 696.14 323.35 698.02 330.43 699.25 337.33 699.37 344.57 698.36 352.2 696.77 359.76 694.14 367.78 690.51 376.28 686.52 384.76 681.73 393.75 676.24 403.29 670.72 412.83 664.88 422.71 658.88 432.9 653.2 443.11 647.56 453.64 642.05 464.43 637.1 475.22 632.38 486.24 627.95 497.39 624.15 508.44 620.62 519.48 617.35 530.34 614.67 540.86 612.15 550.94 609.75 560.34 607.8 569.03 605.83 576.71 603.77 583.12 597.61 593.4 585.19 593.25 579.4 591.02 575.27 590.83 570.6 591.86 565.39 594.61 560.06 599.79 554.2 607.22 547.84 616.89 541.36 628.69 534.4 641.92 526.99 655.81 519.5 669.55 511.59 682 503.31 692.07 494.97 699.21 486.3 702.5 477.32 701.58 468.31 697.14 459.03 689.23 449.51 678.78 439.98 667.7 430.22 656.79 420.27 647.48 410.32 641.54 400.41 639.23 390.58 640.62 380.76 645.84 371.01 653.54 361.36 662.58 351.71 672.32 342.15 680.87 332.72 687.15 323.28 690.91 313.96 691.06 304.78 687.52 295.6 680.85 286.56 671.15 277.68 659.18 268.82 645.84 260.12 631.83 251.63 617.96 243.16 604.92 234.91 593.16 226.91 582.99 218.96 574.71 211.27 568.14 203.9 563.09 196.61 559.67 189.64 557.19 183.05 555.26 176.57 554.1 170.47 552.81 164.81 551.11 159.29 549.39 154.21 546.85 149.6 543.39 145.15 539.54 141.19 534.69 137.75 528.89 134.45 522.68 131.67 515.63 129.42 507.88 127.3 499.85 125.71 491.28 124.65 482.28 123.69 473.16 123.25 463.76 123.34 454.15 123.47 444.52 124.11 434.76 125.25 424.91 126.39 415.06 127.97 405.36 129.96 395.81 131.89 386.23 134.2 376.74 136.86 367.32 139.41 357.79 142.28 348.24 145.46 338.63 148.49 328.83 151.82 318.89 155.4 308.76 158.83 298.43 162.53 287.89 166.47 277.18 170.26 266.35 174.31 255.45 178.6 244.59 182.76 233.89 187.18 223.49 191.85 213.59 196.42 204.27 201.26 195.78 206.38 188.35 211.42 181.85 216.75 176.6 222.37 172.69 227.94 169.68 233.82 167.85 239.98 167.02 246.13 166.47 252.58 166.34 259.31 166.31 266.04 165.52 273.07 164.16 280.36 161.94 287.65 158.3 295.22 153.63 303.02 148.02 310.84 141.38 318.89 134.44 327.16 127.69 335.43 121.29 343.91 116.11 352.57 112.64 361.24 110.77 370.09 111.08 379.11 113.55" stroke-dasharray="9 3" transform="rotate(4.04, 400, 400)" opacity="0.29">
		</path>
		<path d="M380.86 124.23C389.56 128.03 398.24 133.12 406.89 138.97 415.56 144.66 424.21 150.08 432.83 154.83 441.48 158.25 450.13 160.59 458.76 161.9 467.45 161.88 476.15 161.24 484.86 160.34 493.65 159.06 502.48 158.27 511.32 158.31 520.27 159 529.25 161.02 538.25 164.45 547.35 168.98 556.47 174.91 565.57 182.08 574.74 190.13 583.86 199.07 592.86 208.64 601.87 218.53 610.71 228.65 619.29 238.8 627.76 248.77 635.87 258.53 643.54 268 650.94 277.05 657.78 285.77 663.94 294.2 669.69 302.19 674.66 309.98 678.74 317.65 682.29 324.99 684.88 332.34 686.45 339.79 687.44 347.05 687.4 354.52 686.33 362.27 684.74 369.93 682.19 377.94 678.73 386.35 674.94 394.73 670.41 403.55 665.22 412.84 660 422.13 654.47 431.68 648.76 441.46 643.34 451.25 637.91 461.24 632.57 471.37 627.72 481.46 623.05 491.6 618.61 501.7 614.74 511.61 611.1 521.31 607.67 530.62 604.79 539.52 602.05 547.78 599.42 555.22 592.9 570.87 582.63 579.57 578.37 578.37 573.72 577.35 562.08 579.94 555 586.02 550.03 592.88 544.56 601.72 538.62 612.39 532.59 624.62 526.09 637.75 519.17 650.99 512.17 663.64 504.77 674.7 497 683.25 489.17 688.92 481 690.98 472.52 689.19 464.01 684.32 455.22 676.41 446.17 666.34 437.11 655.85 427.81 645.59 418.3 636.81 408.79 631.09 399.3 628.65 389.86 629.58 380.43 634.03 371.05 640.87 361.75 649.12 352.46 658.27 343.25 666.64 334.14 673.23 325.04 677.81 316.05 679.25 307.18 677.37 298.32 672.59 289.6 664.8 281.03 654.59 272.49 642.73 264.11 629.73 255.93 616.36 247.79 603.24 239.86 590.87 232.17 579.63 224.55 569.86 217.19 561.57 210.14 554.7 203.17 549.4 196.52 545.21 190.23 541.82 181.16 538.33 165.24 531.96 158.48 527.79 152.42 522.72 142.93 508.11 139.54 498.67 137.59 491.91 136.14 484.52 135.2 476.58 134.36 468.53 134.02 460.04 134.18 451.19 134.4 442.31 135.09 433.13 136.27 423.69 137.45 414.25 139.05 404.79 141.04 395.32 142.97 385.84 145.27 376.3 147.9 366.72 150.42 357.06 153.26 347.3 156.38 337.41 159.37 327.42 162.63 317.26 166.14 306.96 169.5 296.57 173.12 286.06 176.97 275.5 180.67 264.99 184.62 254.57 188.79 244.39 192.83 234.54 197.12 225.16 201.65 216.47 206.07 208.44 210.75 201.34 215.68 195.34 220.54 190.2 225.66 186.24 231.05 183.47 236.39 181.37 242.01 180.21 247.91 179.79 253.77 179.36 259.93 179.1 266.35 178.71 272.76 177.43 279.44 175.46 286.39 172.62 293.33 168.42 300.53 163.3 307.98 157.39 315.42 150.64 323.1 143.74 331 137.17 338.9 131.05 347.02 126.18 355.33 122.99 363.65 121.34 372.16 121.76 380.85 124.23" stroke-dasharray="1 8" transform="rotate(8.08, 400, 400)" opacity="0.94">
		</path>
		<path d="M383.17 134.91C391.55 138.63 399.94 143.59 408.32 149.31 416.72 154.94 425.12 160.41 433.51 165.31 441.93 169.01 450.37 171.74 458.8 173.48 467.29 173.92 475.8 173.66 484.32 173.02 492.91 171.83 501.53 170.9 510.17 170.56 518.89 170.63 527.63 171.81 536.36 174.2 545.18 177.56 553.98 182.25 562.73 188.18 571.52 195.03 580.22 202.88 588.78 211.52 597.31 220.67 605.64 230.26 613.68 240.09 621.59 249.97 629.13 259.83 636.2 269.55 643.02 279.04 649.27 288.29 654.86 297.29 660.07 305.95 664.52 314.4 668.14 322.68 671.27 330.67 673.51 338.58 674.81 346.48 675.58 354.19 675.41 362 674.29 369.96 672.71 377.82 670.25 385.92 666.95 394.29 663.37 402.62 659.09 411.29 654.2 420.28 649.28 429.28 644.05 438.42 638.63 447.65 633.46 456.87 628.25 466.15 623.09 475.4 618.36 484.58 613.76 493.65 609.34 502.48 605.43 511.09 601.7 519.31 598.16 526.98 595.1 534.24 592.17 540.75 589.34 546.38 582.19 557.46 571.28 562.8 566.99 562.3 562.41 562.93 551.24 570.44 544.55 579.1 539.87 587.36 534.75 597.25 529.18 608.51 523.55 620.82 517.48 633.51 511 645.86 504.46 657.28 497.52 666.88 490.23 673.93 482.88 678.22 475.2 679.16 467.2 676.62 459.18 671.42 450.86 663.58 442.28 653.92 433.69 644.02 424.85 634.39 415.79 626.13 406.73 620.65 397.67 618.1 388.64 618.6 379.61 622.34 370.63 628.34 361.71 635.77 352.79 644.29 343.94 652.36 335.19 659.07 326.45 664.26 317.8 666.77 309.27 666.36 300.76 663.34 292.38 657.43 284.15 649.06 275.95 638.86 267.91 627.2 260.07 614.73 252.28 602.03 244.69 589.56 237.34 577.77 230.06 566.98 223.05 557.35 216.32 548.94 209.69 541.91 203.37 536 197.4 531.01 191.55 527.09 186.06 523.68 180.98 520.53 173.76 516.54 161.7 507.34 156.93 501.4 154.04 497.13 151.63 492.16 149.72 486.51 147.92 480.71 146.61 474.27 145.79 467.23 145.06 460.1 144.81 452.45 145.05 444.32 145.33 436.15 146.08 427.57 147.29 418.59 148.5 409.61 150.11 400.47 152.1 391.2 154.03 381.93 156.31 372.51 158.9 362.95 161.4 353.37 164.2 343.63 167.26 333.76 170.2 323.85 173.4 313.82 176.84 303.7 180.14 293.61 183.68 283.51 187.44 273.5 191.06 263.69 194.91 254.12 198.98 244.95 202.91 236.23 207.09 228.11 211.48 220.78 215.77 214.14 220.3 208.45 225.06 203.82 232.21 198.5 247.68 193.42 256.02 192.78 261.63 192.26 267.5 191.7 273.64 190.82 279.75 188.96 286.12 186.36 292.75 182.9 299.36 178.19 306.23 172.68 313.34 166.54 320.43 159.75 327.77 152.96 335.32 146.61 342.87 140.8 350.64 136.26 358.62 133.35 366.6 131.92 374.78 132.44 383.16 134.91" stroke-dasharray="5 2" transform="rotate(12.12, 400, 400)" opacity="0.14">
		</path>
		<path d="M385.97 145.59C394.05 149.22 402.14 154.04 410.25 159.61 418.37 165.17 426.51 170.64 434.66 175.66 442.84 179.62 451.04 182.71 459.25 184.87 467.5 185.78 475.78 185.96 484.08 185.65 492.43 184.66 500.8 183.75 509.18 183.19 517.62 182.82 526.07 183.32 534.49 184.84 542.96 187.13 551.4 190.65 559.76 195.33 568.13 200.9 576.38 207.53 584.46 215.05 592.49 223.18 600.28 231.93 607.77 241.11 615.11 250.52 622.07 260.11 628.57 269.73 634.81 279.29 640.49 288.74 645.54 298.03 650.23 307.12 654.2 316.02 657.39 324.75 660.14 333.25 662.05 341.64 663.1 349.93 663.69 358.07 663.4 366.21 662.25 374.37 660.69 382.45 658.33 390.64 655.19 398.97 651.81 407.27 647.79 415.75 643.18 424.4 638.55 433.06 633.61 441.7 628.48 450.29 623.56 458.84 618.58 467.3 613.61 475.57 609.01 483.75 604.51 491.65 600.13 499.17 596.21 506.47 592.43 513.24 588.79 519.38 584.06 527.68 575.58 539.51 571.62 542.91 564.12 545.98 551.34 550.43 546.11 554.88 542.5 559.73 538.51 565.98 534.13 573.72 529.7 583.02 524.87 593.56 519.64 605.03 514.35 617.06 508.66 629.04 502.58 640.3 496.45 650.38 489.95 658.51 483.1 664.1 476.21 667.12 468.99 667.06 461.46 663.9 453.9 658.46 446.05 650.76 437.94 641.54 429.81 632.22 421.43 623.21 412.82 615.45 404.21 610.2 395.58 607.58 386.98 607.68 378.37 610.76 369.79 615.95 361.26 622.58 352.75 630.4 344.29 638.06 335.91 644.75 327.54 650.33 319.26 653.7 311.1 654.54 302.96 653.1 294.95 648.98 287.08 642.44 279.24 634.03 271.57 623.93 264.09 612.69 256.66 600.84 249.43 588.77 242.44 576.93 235.52 565.64 228.86 555.15 222.48 545.6 216.2 537.14 210.22 529.7 204.58 523.19 199.05 517.69 193.88 512.87 189.1 508.51 182.31 503.01 171.03 492.41 166.59 486.5 162.8 480.17 157.7 464.65 156.41 455.38 155.79 448.96 155.63 441.98 155.94 434.48 156.28 426.95 157.07 418.93 158.31 410.45 159.54 401.96 161.16 393.23 163.14 384.29 165.06 375.37 167.32 366.24 169.88 356.94 172.34 347.66 175.09 338.22 178.1 328.67 180.99 319.16 184.13 309.58 187.5 300.01 190.74 290.57 194.2 281.24 197.87 272.12 201.41 263.31 205.17 254.86 209.14 246.94 212.98 239.51 217.04 232.77 221.31 226.85 227.66 219.38 241.37 209.94 248.75 207.74 256.26 206.43 272.45 204.48 281.13 202.5 286.97 200.02 293.06 196.79 299.39 192.75 305.7 187.6 312.26 181.78 319.04 175.49 325.82 168.73 332.83 162.11 340.06 156.02 347.28 150.56 354.72 146.35 362.37 143.73 370.02 142.51 377.89 143.14 385.96 145.58" stroke-dasharray="5 9" transform="rotate(16.16, 400, 400)" opacity="0.74">
		</path>
		<path d="M389.19 156.27C396.96 159.8 404.76 164.47 412.59 169.88 420.42 175.34 428.29 180.78 436.18 185.88 444.09 190.06 452.03 193.48 459.98 196.05 467.97 197.43 475.99 198.08 484.01 198.17 492.08 197.5 500.17 196.73 508.24 196.12 516.36 195.49 524.47 195.5 532.54 196.31 540.63 197.7 548.66 200.15 556.58 203.67 564.5 207.98 572.27 213.33 579.85 219.6 587.35 226.55 594.6 234.22 601.53 242.46 608.31 251.08 614.7 260.04 620.62 269.18 626.3 278.44 631.44 287.73 635.97 296.97 640.17 306.15 643.69 315.2 646.48 324.12 648.88 332.91 650.51 341.57 651.33 350.1 651.75 358.52 651.38 366.87 650.2 375.15 648.68 383.38 646.42 391.59 643.45 399.81 640.27 408.02 636.49 416.26 632.16 424.53 627.81 432.79 623.17 440.89 618.32 448.77 613.65 456.63 608.9 464.24 604.13 471.52 599.68 478.71 595.28 485.5 590.98 491.8 587.07 497.92 583.26 503.45 579.57 508.33 570.2 519.45 557.64 528.84 553.54 530.35 549.53 532.48 540.53 540.14 535.38 546.98 531.87 553.3 528.02 560.86 523.82 569.64 519.6 579.6 515.02 590.4 510.07 601.7 505.08 613.15 499.73 624.18 494.02 634.21 488.26 642.88 482.16 649.56 475.73 653.78 469.26 655.63 462.47 654.7 455.38 651.04 448.27 645.45 440.88 637.95 433.22 629.18 425.55 620.45 417.62 612.05 409.47 604.77 401.31 599.76 393.13 597.08 384.95 596.84 376.79 599.29 368.63 603.72 360.51 609.54 352.4 616.63 344.35 623.79 336.36 630.31 328.4 636.09 320.51 640.09 312.73 641.96 304.99 641.9 297.35 639.42 289.87 634.64 282.42 628.04 275.13 619.65 268.03 609.89 260.98 599.24 254.13 588 247.51 576.59 240.96 565.33 234.67 554.48 228.65 544.26 222.73 534.81 217.1 526.18 211.8 518.36 206.6 511.44 201.75 505.22 197.27 499.57 190.93 492.28 180.41 479.26 176.31 472.77 172.81 466.25 168.19 451.24 167.08 442.55 166.56 436.57 166.48 430.08 166.84 423.09 167.25 416.08 168.07 408.57 169.33 400.59 170.58 392.61 172.2 384.36 174.16 375.89 176.07 367.43 178.3 358.78 180.81 349.97 183.24 341.21 185.94 332.32 188.89 323.39 191.73 314.56 194.81 305.73 198.11 297.02 201.28 288.5 204.67 280.2 208.26 272.23 211.72 264.6 215.4 257.43 219.26 250.86 223.01 244.77 226.97 239.39 231.12 234.81 237.29 229.13 250.57 222.33 257.69 220.79 264.93 219.57 280.48 216.58 288.8 213.68 294.38 210.57 300.21 206.74 306.26 202.17 312.29 196.66 318.56 190.61 325.05 184.26 331.52 177.6 338.22 171.2 345.14 165.43 352.05 160.32 359.18 156.46 366.52 154.12 373.86 153.11 381.41 153.83 389.18 156.26" stroke-dasharray="3 5" transform="rotate(20.200000000000003, 400, 400)" opacity="0.38">
		</path>
		<path d="M392.72 166.95C400.18 170.37 407.69 174.88 415.22 180.12 422.77 185.45 430.35 190.84 437.95 195.98 445.57 200.34 453.23 204.04 460.9 206.99 468.59 208.83 476.31 209.96 484.03 210.5 491.78 210.22 499.54 209.72 507.27 209.21 515.03 208.5 522.76 208.21 530.42 208.52 538.1 209.2 545.69 210.75 553.15 213.23 560.58 216.37 567.85 220.48 574.91 225.49 581.87 231.16 588.58 237.61 594.95 244.71 601.17 252.28 607 260.31 612.37 268.67 617.51 277.27 622.13 286.04 626.17 294.88 629.91 303.77 633.01 312.65 635.44 321.44 637.51 330.21 638.88 338.87 639.51 347.4 639.79 355.88 639.34 364.25 638.16 372.49 636.68 380.71 634.53 388.83 631.72 396.85 628.74 404.87 625.19 412.8 621.14 420.63 617.07 428.46 612.71 435.99 608.14 443.19 603.73 450.37 599.2 457.18 594.64 463.57 590.35 469.88 586.08 475.72 581.87 481.04 576.1 488.52 565.47 500.26 560.56 504.52 551.89 510.95 539.18 520.28 534.65 525.1 531.67 529.53 528.44 534.84 524.96 541.15 521.51 548.64 517.77 557.15 513.72 566.57 509.67 576.79 505.29 587.49 500.59 598.29 495.87 608.89 490.81 618.79 485.43 627.48 480.01 634.74 474.27 640.01 468.22 642.96 462.15 643.77 455.77 642.1 449.1 638.05 442.42 632.4 435.46 625.15 428.24 616.87 421.01 608.72 413.54 600.9 405.84 594.09 398.14 589.32 390.4 586.61 382.66 586.05 374.93 587.94 367.21 591.63 359.51 596.68 351.83 603.01 344.19 609.6 336.62 615.82 329.07 621.63 321.6 626.04 314.23 628.71 306.89 629.81 299.66 628.76 292.57 625.63 285.53 620.79 278.63 614.14 271.92 606.01 265.27 596.82 258.81 586.76 252.58 576.2 246.42 565.45 240.5 554.76 234.85 544.36 229.29 534.41 224.02 525.03 219.06 516.29 214.21 508.24 209.68 500.83 205.51 494 201.45 487.8 197.76 482.02 194.45 476.53 189.87 468.99 182.89 454.33 180.52 446.71 178.72 438.92 177.35 421.54 177.77 411.82 178.23 405.19 179.08 398.13 180.35 390.64 181.61 383.15 183.22 375.43 185.16 367.53 187.05 359.65 189.24 351.61 191.71 343.48 194.1 335.41 196.75 327.29 199.63 319.21 202.42 311.25 205.43 303.4 208.65 295.75 211.76 288.33 215.07 281.21 218.58 274.5 221.97 268.12 225.56 262.27 229.33 257.02 234.91 250.12 246.89 240.37 253.29 237.46 259.76 235.37 273.63 232.59 281.04 231.01 285.99 229.24 291.17 227.03 296.57 224.25 301.92 220.54 307.5 216.16 313.3 211.16 319.07 205.37 325.06 199.2 331.27 192.86 337.46 186.38 343.87 180.26 350.49 174.83 357.1 170.1 363.93 166.59 370.97 164.54 378 163.73 385.25 164.54 392.71 166.94" stroke-dasharray="6 1" transform="rotate(24.24, 400, 400)" opacity="0.90">
		</path>
		<path d="M396.47 177.62C403.62 180.94 410.82 185.28 418.05 190.33 425.29 195.5 432.57 200.81 439.87 205.95 447.18 210.44 454.52 214.38 461.87 217.67 469.25 219.96 476.63 221.57 484.01 222.58 491.41 222.76 498.8 222.62 506.15 222.34 513.51 221.72 520.83 221.33 528.06 221.34 535.29 221.52 542.41 222.38 549.39 224 556.32 226.12 563.08 229.1 569.6 232.92 576.03 237.31 582.18 242.5 588 248.37 593.67 254.72 598.96 261.63 603.8 268.97 608.42 276.62 612.56 284.56 616.14 292.68 619.45 300.96 622.17 309.31 624.26 317.67 626.04 326.08 627.18 334.44 627.64 342.7 627.79 350.97 627.29 359.13 626.11 367.14 624.69 375.15 622.65 383.02 620.01 390.73 617.21 398.45 613.9 406 610.12 413.36 606.32 420.72 602.24 427.7 597.95 434.27 593.78 440.83 589.5 446.96 585.15 452.63 581.03 458.25 576.91 463.38 572.81 468 567.12 474.57 556.44 485.1 551.43 489.22 546.85 493.15 537.97 500.64 533.52 504.95 530.69 508.58 527.72 512.71 524.59 517.5 521.57 523.22 518.33 529.76 514.88 537.16 511.47 545.47 507.81 554.54 503.89 564.2 499.98 574.3 495.78 584.54 491.29 594.56 486.8 604.11 482 612.75 476.91 620.06 469.09 627.89 451.98 630.43 442.72 624.96 436.44 619.33 429.9 612.37 423.11 604.58 416.32 597.01 409.29 589.76 402.04 583.41 394.79 578.88 387.5 576.16 380.2 575.33 372.92 576.7 365.63 579.7 358.37 583.99 351.13 589.57 343.92 595.52 336.77 601.33 329.65 607.01 322.6 611.64 315.65 614.88 308.73 616.89 301.92 617.07 295.25 615.39 288.62 612.19 282.14 607.26 275.84 600.81 269.59 593.23 263.54 584.59 257.7 575.22 251.93 565.4 246.4 555.31 241.12 545.23 235.93 535.28 231.02 525.64 226.41 516.42 221.89 507.67 217.69 499.42 213.83 491.68 210.07 484.45 206.66 477.65 203.61 471.22 200.67 465.19 198.11 459.39 195.94 453.71 193.02 445.56 189.31 429.13 188.52 420.52 188.19 414.75 188.25 408.68 188.72 402.31 189.22 395.94 190.1 389.24 191.37 382.22 192.63 375.2 194.23 368.03 196.14 360.75 198 353.5 200.16 346.18 202.57 338.85 204.91 331.58 207.51 324.36 210.32 317.26 213.05 310.29 215.99 303.51 219.14 297.01 222.18 290.73 225.42 284.82 228.84 279.36 233.9 271.87 244.78 260.15 250.58 256.03 256.43 252.81 268.92 248.71 275.57 247.24 282.32 245.23 296.72 239.02 304.39 234.18 309.53 229.91 314.88 225.07 320.44 219.73 325.96 213.76 331.7 207.56 337.64 201.33 343.56 195.08 349.69 189.29 356.03 184.24 362.35 179.9 368.89 176.75 375.63 174.98 382.36 174.37 389.31 175.26 396.46 177.62" stroke-dasharray="6 2" transform="rotate(28.28, 400, 400)" opacity="0.17">
		</path>
		<path d="M400.32 188.3C407.16 191.5 414.05 195.66 420.96 200.5 427.88 205.51 434.83 210.69 441.81 215.8 448.79 220.37 455.8 224.51 462.8 228.09 469.82 230.78 476.85 232.85 483.85 234.34 490.87 235.02 497.86 235.31 504.8 235.37 511.74 234.98 518.62 234.67 525.4 234.57 532.15 234.48 538.79 234.87 545.26 235.85 551.68 237.16 557.91 239.19 563.9 241.95 569.79 245.18 575.41 249.15 580.69 253.79 585.83 258.89 590.59 264.57 594.93 270.75 599.06 277.27 602.73 284.16 605.89 291.33 608.81 298.71 611.17 306.27 612.96 313.91 614.48 321.67 615.41 329.45 615.73 337.19 615.78 344.98 615.23 352.69 614.08 360.27 612.71 367.88 610.78 375.34 608.31 382.62 605.7 389.92 602.62 397.02 599.1 403.89 595.56 410.77 591.75 417.24 587.73 423.29 583.82 429.33 579.78 434.94 575.65 440.1 569.73 447.59 558.21 460.35 552.68 465.71 547.57 470.81 537.82 480.1 533.1 484.78 528.66 490.22 519.64 503.73 514.95 512.38 511.88 519.14 508.63 526.58 505.2 534.68 501.83 543.42 498.23 552.63 494.41 562.14 490.62 571.78 486.57 581.27 482.27 590.29 477.97 598.65 473.41 605.95 468.58 611.88 461.19 617.77 445.07 617.67 436.36 611.79 430.47 606.26 424.32 599.63 417.95 592.35 411.58 585.33 404.98 578.63 398.17 572.73 391.37 568.45 384.53 565.73 377.68 564.67 370.83 565.57 363.99 567.93 357.17 571.49 350.37 576.31 343.6 581.6 336.89 586.92 330.21 592.33 323.59 596.99 317.07 600.57 310.59 603.26 304.21 604.42 297.96 603.99 291.76 602.25 285.7 598.91 279.82 594.11 273.98 588.19 268.34 581.13 262.9 573.16 257.53 564.58 252.38 555.49 247.49 546.14 242.67 536.68 238.12 527.27 233.85 518.05 229.68 509.05 225.8 500.4 222.24 492.12 218.78 484.21 215.64 476.68 212.86 469.5 210.17 462.67 207.83 456.1 205.86 449.75 203.98 443.64 202.47 437.64 201.34 431.69 200.28 425.87 199.6 420.01 199.3 414.06 199.05 408.17 199.18 402.12 199.69 395.91 200.23 389.71 201.12 383.31 202.39 376.71 203.65 370.11 205.23 363.48 207.1 356.85 208.93 350.24 211.03 343.66 213.39 337.17 215.68 330.74 218.21 324.44 220.95 318.34 223.62 312.36 226.49 306.65 229.55 301.27 234.1 293.66 243.95 280.95 249.23 276 254.54 271.84 265.88 266 271.9 263.99 277.99 261.94 290.95 257.23 297.84 253.91 302.44 250.89 307.23 247.4 312.2 243.4 317.14 238.67 322.27 233.47 327.6 227.9 332.89 221.87 338.38 215.73 344.07 209.69 349.73 203.75 355.6 198.33 361.66 193.68 367.7 189.74 373.95 186.94 380.4 185.45 386.83 185.02 393.48 185.98 400.31 188.3" stroke-dasharray="3 3" transform="rotate(32.32, 400, 400)" opacity="0.20">
		</path>
		<path d="M404.17 198.98C410.69 202.05 417.24 206.02 423.82 210.64 430.41 215.46 437.03 220.49 443.65 225.52 450.28 230.13 456.93 234.4 463.57 238.22 470.21 241.27 476.85 243.76 483.46 245.73 490.07 246.91 496.64 247.69 503.14 248.17 509.63 248.13 516.05 248.04 522.35 248.03 528.62 247.87 534.75 248.02 540.72 248.59 549.48 249.98 565.69 256.23 573 261.2 577.62 265.09 581.89 269.57 585.75 274.56 589.43 279.87 592.67 285.61 595.43 291.69 597.98 298 600.03 304.57 601.55 311.31 602.84 318.19 603.58 325.17 603.77 332.17 603.74 339.26 603.17 346.32 602.05 353.31 600.75 360.33 598.93 367.25 596.62 374.01 594.21 380.79 591.35 387.4 588.08 393.79 584.8 400.19 581.25 406.21 577.5 411.85 573.84 417.48 570.04 422.73 566.14 427.6 560.5 434.74 549.36 447.34 543.93 452.99 538.86 458.62 529.03 469.85 524.24 475.9 521.22 480.41 518.15 485.25 515.01 490.48 512.02 496.29 508.92 502.61 505.72 509.47 502.61 516.91 499.36 524.87 495.95 533.27 492.6 542.04 489.07 551.03 485.34 560.04 481.64 568.93 477.73 577.44 473.59 585.29 469.47 592.37 465.11 598.33 460.52 602.92 453.52 607.02 438.32 604.68 430.15 598.55 424.61 593.17 418.85 586.92 412.88 580.15 406.91 573.68 400.73 567.52 394.37 562.06 388 558.01 381.6 555.32 375.19 554.07 368.79 554.54 362.39 556.32 356.02 559.2 349.66 563.27 343.34 567.87 337.07 572.64 330.83 577.65 324.66 582.17 318.58 585.91 309.56 589.98 292.19 590.05 283.91 585.83 278.5 581.52 273.26 576.06 268.23 569.62 263.26 562.47 258.5 554.66 253.99 546.39 249.54 537.82 245.35 529.06 241.43 520.28 237.59 511.53 234.03 502.92 230.77 494.54 227.6 486.36 224.74 478.47 222.21 470.87 219.76 463.51 217.64 456.42 215.87 449.57 214.17 442.93 212.83 436.45 211.83 430.12 210.91 423.92 210.33 417.78 210.12 411.67 209.95 405.63 210.14 399.56 210.68 393.46 211.25 387.37 212.15 381.22 213.41 375.01 214.66 368.8 216.21 362.67 218.03 356.65 219.83 350.65 221.88 344.78 224.17 339.08 227.63 330.72 235.51 315.36 239.88 308.57 244.31 302.33 253.89 292.1 259.03 288.15 264.2 284.71 275.21 279.43 281.06 277.24 286.95 274.7 299.48 268.37 306.12 264.09 310.56 260.47 315.17 256.41 319.95 251.93 324.69 246.84 329.61 241.4 334.71 235.71 339.79 229.72 345.04 223.74 350.48 217.97 355.89 212.39 361.5 207.38 367.28 203.15 373.06 199.62 379.02 197.17 385.17 195.95 391.31 195.69 397.64 196.71 404.16 198.98" stroke-dasharray="0 7" transform="rotate(36.36, 400, 400)" opacity="0.51">
		</path>
		<path d="M407.89 209.66C414.08 212.59 420.3 216.36 426.53 220.76 432.77 225.36 439.03 230.22 445.29 235.13 457.82 243.84 470.36 251.19 482.73 256.69 495.09 259.35 507.21 260.68 518.87 261.47 530.39 261.23 541.28 262.04 551.25 264.49 560.85 267.74 569.29 273.21 576.28 280.7 582.62 289.3 587.28 299.52 590.04 310.83 592.01 322.74 592.02 335.19 590.03 347.7 588.8 354.02 587.1 360.29 584.96 366.48 582.72 372.68 580.08 378.76 577.06 384.7 574.03 390.64 570.74 396.27 567.26 401.61 563.85 406.95 560.28 411.99 556.61 416.75 549.69 426.34 542.52 435.03 535.29 443.11 528.82 451.84 522.27 460.71 515.66 470.28 509.7 481.42 503.48 494.04 496.93 508.32 490.77 524.14 484.06 540.92 476.73 557.53 469.54 572.9 461.58 585.37 452.85 593.16 444.12 596.31 434.55 593.54 424.18 585.27 418.99 580.11 413.6 574.25 408.02 567.99 402.43 562.07 396.66 556.42 390.72 551.38 384.78 547.58 378.81 544.93 372.85 543.52 366.89 543.62 360.93 544.87 355 547.11 343.19 554.75 331.53 563.47 320.23 571.02 309.05 577.12 298.3 578.89 288.17 575.95 278.23 569.4 268.99 558.77 260.64 545.32 252.55 530.19 245.43 514.07 239.43 497.96 233.73 482.03 229.2 466.83 225.96 452.57 223 438.84 221.31 425.81 220.98 413.36 220.89 407.22 221.12 401.16 221.69 395.17 222.28 389.2 223.19 383.27 224.43 377.4 226.42 368.69 231.69 352.28 234.9 344.66 239.18 334.73 244.3 325.94 250.13 318.52 255.66 311.34 261.89 305.6 268.71 301.26 275.21 296.78 282.35 293.13 290.06 289.85 297.5 285.21 305.58 279.85 314.26 273.28 322.75 264.45 331.91 254.26 341.71 243.22 351.38 231.49 361.76 220.82 372.81 212.66 378.31 209.55 383.98 207.45 389.83 206.47 395.67 206.38 401.69 207.45 407.88 209.66" stroke-dasharray="3 5" transform="rotate(40.400000000000006, 400, 400)" opacity="0.66">
		</path>
		<path d="M411.37 220.34C423.07 226.45 434.86 235.03 446.61 244.63 458.37 253.31 470.09 261.01 481.58 267.19 493.05 270.83 504.23 273.14 514.9 274.68 525.43 274.9 535.31 275.65 544.27 277.49 552.89 279.63 560.39 283.55 566.53 289.24 572.1 295.74 576.13 303.86 578.43 313.18 580.07 323.04 579.95 333.69 578.02 344.69 575.6 355.86 571.57 367.1 566.04 378.11 560.47 389.13 554.04 399.37 547.07 408.88 540.54 418.52 533.7 427.74 526.72 436.81 520.39 446.54 513.92 456.75 507.35 467.81 501.36 480.11 495.11 493.67 488.58 508.37 482.41 523.84 475.77 539.52 468.61 554.27 461.6 567.31 453.94 577.21 445.61 582.62 437.32 583.98 428.29 580.25 418.57 571.95 408.83 561.99 398.4 550.83 387.35 540.7 376.31 534.82 365.2 533.08 354.22 535.23 343.29 541.47 332.52 549.01 322.11 556.02 311.81 562.39 301.93 565.41 292.64 564.54 283.53 560.7 275.08 553.03 267.48 542.42 260.11 529.92 253.64 515.88 248.23 501.27 243.08 486.36 239.01 471.7 236.14 457.68 233.51 443.93 232.07 430.85 231.89 418.49 231.86 406.29 233.03 394.6 235.45 383.49 237.85 372.38 241.29 362.32 245.6 353.39 249.74 344.49 254.68 336.79 260.29 330.38 265.65 323.98 271.67 318.77 278.25 314.57 284.55 309.91 291.46 305.67 298.89 301.4 306.09 295.69 313.88 289.14 322.21 281.46 330.38 271.92 339.15 261.39 348.51 250.47 357.76 239.33 367.64 229.51 378.13 222.24 388.57 217.52 399.67 216.79 411.36 220.33" stroke-dasharray="2 4" transform="rotate(44.44, 400, 400)" opacity="0.65">
		</path>
		<path d="M414.53 231.02C425.53 236.79 436.57 244.86 447.52 254.02 458.48 262.57 469.35 270.48 479.94 277.19 490.51 281.72 500.74 285.01 510.43 287.42 519.98 288.36 528.87 289.43 536.86 291.13 544.54 292.69 551.17 295.59 556.52 299.94 561.38 304.78 564.84 311.11 566.74 318.67 568.09 326.64 567.87 335.57 566.03 345.12 563.79 354.8 560.09 364.87 555.02 375.11 549.92 385.34 543.99 395.25 537.51 404.86 531.39 414.63 524.9 424.39 518.23 434.34 512.09 444.86 505.76 456.03 499.31 468.02 493.34 480.86 487.13 494.61 480.67 508.94 474.54 523.39 467.99 537.43 461.02 549.99 454.21 560.6 446.83 568.03 438.9 571.32 431.02 571.19 422.5 566.77 413.4 558.64 404.3 549.39 394.59 539.26 384.36 530.02 374.12 524.45 363.87 522.34 353.76 523.56 343.69 528.48 333.81 534.79 324.28 541.04 314.85 547.29 305.82 551.08 297.37 551.76 289.07 550.18 281.4 545.17 274.53 537.31 267.86 527.59 262.03 516.01 257.18 503.41 252.55 490.18 248.93 476.74 246.41 463.59 244.1 450.46 242.89 437.83 242.84 425.89 242.92 414.03 244.11 402.79 246.47 392.28 248.81 381.77 252.12 372.44 256.25 364.27 260.23 356.08 264.98 349.03 270.36 343.1 275.53 337 281.32 331.79 287.64 327.24 293.73 322.04 300.38 316.93 307.52 311.54 314.46 304.77 321.94 297.17 329.92 288.62 337.75 278.66 346.14 268.1 355.04 257.54 363.86 247.15 373.25 238.26 383.17 231.9 393.06 227.9 403.53 227.54 414.53 231.02" stroke-dasharray="1 1" transform="rotate(48.48, 400, 400)" opacity="0.89">
		</path>
		<path d="M417.25 241.7C427.53 247.11 437.8 254.66 447.94 263.32 458.08 271.63 468.07 279.6 477.76 286.69 487.41 291.97 496.69 296.17 505.42 299.48 514.01 301.32 521.94 303 529.02 304.94 538.72 307.63 551.95 318.54 554.98 327.18 556.09 333.59 555.79 341.03 554.05 349.3 551.99 357.65 548.62 366.65 544 376.17 539.35 385.69 533.91 395.29 527.93 404.96 522.23 414.76 516.13 424.88 509.8 435.38 503.9 446.31 497.77 457.91 491.5 470.16 485.63 482.86 479.52 496.07 473.18 509.33 467.13 522.24 460.73 534.25 453.97 544.45 447.36 552.67 440.29 557.83 432.75 559.3 425.27 558 417.26 553.15 408.76 545.33 400.27 536.85 391.26 527.71 381.82 519.34 372.38 514.1 362.96 511.7 353.71 512.11 344.49 515.79 335.47 520.86 326.81 526.19 318.22 532 310.04 536.1 302.4 537.83 294.89 537.96 287.99 535.2 281.82 529.82 275.82 522.8 270.61 513.79 266.29 503.48 262.17 492.37 258.97 480.66 256.79 468.88 254.77 456.93 253.77 445.22 253.84 434.03 254.01 422.86 255.21 412.24 257.49 402.34 259.76 392.43 262.93 383.65 266.86 375.96 270.67 368.2 275.2 361.42 280.34 355.52 285.29 349.34 290.83 343.76 296.88 338.53 302.72 332.58 309.1 326.5 315.93 320.03 322.58 312.35 329.74 303.95 337.35 294.86 344.82 284.78 352.81 274.47 361.25 264.51 369.61 255 378.49 247.1 387.84 241.63 397.15 238.34 406.97 238.31 417.25 241.7" stroke-dasharray="5 9" transform="rotate(52.52, 400, 400)" opacity="0.80">
		</path>
		<path d="M419.47 252.38C429 257.42 438.48 264.42 447.79 272.53 457.09 280.5 466.21 288.38 474.99 295.67 483.73 301.53 492.07 306.51 499.87 310.68 507.53 313.47 514.55 315.93 520.76 318.4 529.26 321.4 540.66 330.92 543.17 338.16 544.07 343.43 543.72 349.72 542.1 356.94 540.22 364.19 537.17 372.28 532.98 381.13 528.77 389.99 523.82 399.23 518.32 408.78 513.05 418.44 507.37 428.58 501.42 439.18 495.8 450.03 489.94 461.44 483.9 473.26 478.2 485.19 472.26 497.23 466.11 508.9 460.2 519.89 453.99 529.67 447.48 537.5 441.11 543.48 434.35 546.66 427.21 546.65 420.14 544.48 412.62 539.44 404.71 532.06 396.81 524.36 388.49 516.2 379.82 508.66 371.14 503.76 362.54 501.16 354.12 500.87 345.73 503.42 337.56 507.29 329.73 511.61 321.97 516.73 314.61 520.73 307.76 523.02 301.02 524.32 294.85 523.28 289.36 519.98 284.01 515.36 279.38 508.8 275.58 500.8 271.93 491.99 269.13 482.31 267.26 472.22 265.52 461.86 264.71 451.44 264.87 441.29 265.12 431.1 266.32 421.28 268.51 412.01 270.69 402.73 273.7 394.39 277.42 386.95 281.05 379.42 285.35 372.63 290.21 366.47 294.92 359.99 300.2 353.84 305.94 347.81 311.52 341.1 317.59 334.13 324.08 326.76 330.43 318.44 337.23 309.57 344.45 300.28 351.55 290.42 359.1 280.62 367.06 271.45 374.96 262.93 383.3 256.05 392.05 251.47 400.77 248.83 409.93 249.09 419.47 252.38" stroke-dasharray="0 6" transform="rotate(56.56, 400, 400)" opacity="0.32">
		</path>
		<path d="M421.11 263.05C429.88 267.72 438.55 274.14 447.02 281.66 455.48 289.19 463.72 296.84 471.6 304.16 479.44 310.4 486.87 315.98 493.77 320.88 500.54 324.57 506.71 327.88 512.11 331.03 519.49 334.8 529.24 344.21 531.3 350.7 532.03 355.28 531.66 360.79 530.16 367.21 528.46 373.64 525.73 380.97 521.96 389.18 518.18 397.4 513.7 406.16 508.7 415.35 503.87 424.6 498.61 434.38 493.07 444.56 487.79 454.84 482.25 465.49 476.51 476.27 471.03 486.9 465.32 497.32 459.42 507.04 453.71 515.93 447.74 523.46 441.53 529.07 435.43 533.04 429.01 534.58 422.3 533.43 415.64 530.68 408.62 525.66 401.3 518.83 393.98 511.94 386.33 504.71 378.41 497.98 370.49 493.44 362.68 490.71 355.07 489.84 347.48 491.38 340.13 494.11 333.12 497.39 326.16 501.63 319.58 505.22 313.49 507.65 304.75 509.65 290.4 503.11 285.05 495.04 281.85 488.46 279.42 480.85 277.84 472.58 276.35 464.01 275.71 455.11 275.96 446.18 276.27 437.19 277.44 428.31 279.53 419.71 281.6 411.11 284.45 403.17 287.94 395.87 291.36 388.48 295.41 381.56 299.98 375.02 304.44 368.18 309.41 361.44 314.83 354.68 320.11 347.35 325.85 339.74 331.98 331.78 337.98 323.16 344.41 314.19 351.2 305.06 357.9 295.71 365 286.67 372.45 278.45 379.85 271 387.63 265.15 395.76 261.42 403.86 259.39 412.33 259.9 421.11 263.05" stroke-dasharray="7 6" transform="rotate(60.599999999999994, 400, 400)" opacity="0.50">
		</path>
		<path d="M422.13 273.73C430.12 278 437.98 283.85 445.6 290.72 453.22 297.73 460.58 305.01 467.59 312.18 474.55 318.58 481.1 324.54 487.14 329.99 493.07 334.45 498.43 338.54 503.08 342.4 509.44 347.18 517.72 357.4 519.4 363.66 519.99 367.93 519.61 372.99 518.24 378.87 516.73 384.72 514.29 391.43 510.94 399.01 507.57 406.59 503.55 414.73 499.04 423.29 494.66 431.87 489.86 440.89 484.75 450.19 479.85 459.45 474.67 468.87 469.28 478.16 464.1 487.15 458.68 495.67 453.09 503.3 447.65 510.1 441.98 515.51 436.1 519.14 430.33 521.44 424.29 521.68 418.02 519.74 411.79 516.68 405.29 511.86 398.55 505.67 391.82 499.6 384.83 493.26 377.64 487.31 370.45 483.13 363.41 480.34 356.58 479.02 349.77 479.7 343.21 481.38 336.98 483.64 327.88 488.37 311.9 494.54 305.26 494.28 299.34 491.64 290.88 478.71 288.51 469.36 287.27 462.57 286.77 455.24 287.08 447.61 287.44 439.91 288.58 432.06 290.55 424.19 292.5 416.32 295.16 408.8 298.42 401.64 301.62 394.4 305.39 387.38 309.65 380.52 313.82 373.41 318.47 366.27 323.53 359.01 328.49 351.35 333.86 343.42 339.59 335.26 345.22 326.72 351.23 318.03 357.56 309.42 363.82 300.84 370.44 292.76 377.35 285.6 384.22 279.25 391.43 274.41 398.9 271.49 406.37 270.02 414.13 270.74 422.13 273.73" stroke-dasharray="5 10" transform="rotate(64.64, 400, 400)" opacity="0.36">
		</path>
		<path d="M422.49 284.41C429.7 288.28 436.73 293.53 443.51 299.72 450.29 306.13 456.79 312.92 462.94 319.76 469.05 326.1 474.77 332.21 480 337.97 487.44 345.35 499.14 357.97 503.13 363.86 506.12 369.45 507.76 382.5 506.35 390.43 505.02 395.88 502.88 402.06 499.92 408.99 496.95 415.92 493.39 423.29 489.36 430.97 485.43 438.65 481.09 446.61 476.45 454.66 471.96 462.61 467.18 470.49 462.2 478.04 457.37 485.23 452.31 491.79 447.08 497.39 439.32 504.03 422.96 508.43 414.35 505.68 408.59 502.54 402.61 498.08 396.47 492.58 390.33 487.32 384 481.85 377.53 476.63 371.06 472.83 364.76 470.07 358.7 468.4 349.74 468.74 333.35 473.75 326.12 476.55 313.95 478.53 301.27 469.47 299.3 462.45 298.26 457.26 297.9 451.4 298.25 445.03 298.64 438.6 299.73 431.79 301.56 424.7 303.39 417.62 305.85 410.59 308.85 403.67 311.81 396.7 315.29 389.73 319.22 382.76 323.08 375.63 327.38 368.36 332.05 360.96 336.64 353.31 341.62 345.48 346.91 337.54 352.14 329.45 357.7 321.39 363.54 313.58 369.32 305.99 375.42 299.01 381.76 292.98 388.07 287.74 394.66 283.87 401.46 281.68 408.26 280.71 415.29 281.6 422.49 284.41" stroke-dasharray="7 6" transform="rotate(68.68, 400, 400)" opacity="0.32">
		</path>
		<path d="M422.2 295.09C434.99 302.69 447.02 314.14 457.7 326.96 468.26 338.69 477.24 349.9 484.04 360.15 490.45 368.48 494.44 376.92 495.54 386.09 496.18 394.64 494.02 405.02 488.9 417.5 483.75 429.97 476.56 443.45 468.16 456.8 460.17 469.61 451.07 481.04 441.36 489.21 432.04 495.01 421.9 495.94 411.28 491.36 400.79 485.13 389.6 475.86 378.08 465.95 366.57 460.42 355.8 457.89 346.24 457.8 336.75 461.13 328.61 463.65 322.31 463.76 316.18 463.56 312 459.62 310.18 452.26 308.53 444.31 309.22 433.71 312.58 421.18 315.93 408.64 321.49 395.44 328.68 381.98 335.66 368.18 344.25 353.63 353.94 339.04 363.44 324.52 374.15 311.06 385.64 300.68 397.06 293.1 409.4 290.85 422.2 295.09" stroke-dasharray="9 9" transform="rotate(72.72, 400, 400)" opacity="0.12">
		</path>
		<path d="M421.25 305.77C432.42 312.4 442.79 322.4 451.89 333.85 460.89 344.85 468.46 355.86 474.1 366.24 479.46 375.32 482.75 384.34 483.59 393.58 484.12 402.31 482.27 412.14 477.88 423.14 473.46 434.14 467.23 445.32 459.85 455.74 452.76 465.64 444.62 473.77 435.89 478.82 427.44 482.19 418.28 481.62 408.75 476.89 399.33 471.39 389.38 463.64 379.28 455.27 369.17 450.22 359.84 447.15 351.64 445.83 340.03 447.96 324.34 446.76 321.17 439.64 319.85 433.64 320.56 425.04 323.6 414.18 326.63 403.32 331.62 391.34 338.03 378.86 344.31 366.29 352.01 353.12 360.68 340.27 369.22 327.9 378.8 316.86 389.02 308.76 399.19 303.05 410.08 301.77 421.25 305.77" stroke-dasharray="8 8" transform="rotate(76.76, 400, 400)" opacity="0.43">
		</path>
		<path d="M419.67 316.45C429.21 322.11 437.97 330.6 445.56 340.5 453.08 350.37 459.33 360.62 463.94 370.56 468.35 379.73 471.02 388.82 471.66 397.8 472.1 406.44 470.55 415.53 466.86 424.99 463.16 434.44 457.86 443.36 451.53 451.07 445.39 458.38 438.28 463.79 430.63 466.5 423.17 468.18 415.08 466.8 406.73 462.4 398.45 457.79 389.79 451.5 381.09 444.59 372.38 440.09 364.44 436.75 357.54 434.55 347.77 434.49 334.78 431.67 332.26 425.79 331.22 421.06 331.93 414.04 334.62 404.86 337.31 395.68 341.68 385.29 347.28 374.4 352.8 363.57 359.55 352.39 367.13 341.77 374.63 331.81 383.01 323.24 391.88 317.31 400.73 313.25 410.13 312.76 419.67 316.45" stroke-dasharray="2 1" transform="rotate(80.80000000000001, 400, 400)" opacity="0.09">
		</path>
		<path d="M417.52 327.13C425.43 331.82 432.61 338.78 438.77 347 444.89 355.41 449.92 364.42 453.59 373.35 457.13 381.93 459.26 390.47 459.74 398.73 460.1 406.8 458.85 414.9 455.84 422.75 452.82 430.6 448.45 437.44 443.19 442.88 438.03 448.07 432.02 451.46 425.52 452.65 419.14 453.32 412.24 451.72 405.13 447.98 398.07 444.35 390.74 439.45 383.45 433.91 376.15 430.03 369.56 426.67 363.9 423.95 350.64 419.75 343 405.16 345.64 394.75 347.95 387.21 351.67 378.68 356.43 369.8 361.13 361.06 366.88 352.22 373.31 344.08 379.69 336.57 386.79 330.38 394.27 326.37 401.73 323.73 409.6 323.84 417.52 327.13" stroke-dasharray="5 7" transform="rotate(84.84, 400, 400)" opacity="0.67">
		</path>
		<path d="M414.84 337.8C427.42 345.98 437.4 360.08 443.11 374.99 448.54 389.54 449.5 404.33 444.82 416.79 440.12 429.24 431.13 436.76 420.53 437.81 410.18 438.12 398.05 432.57 386.3 423.23 374.54 418.03 365.24 413.03 359.76 407.84 354.34 404.57 352.85 397.38 356.66 385.49 360.45 373.6 368.77 359.51 379.22 347.68 389.6 337.76 402.26 333.25 414.84 337.8" stroke-dasharray="5 6" transform="rotate(88.88, 400, 400)" opacity="1.00">
		</path>
		<path d="M411.73 348.48C421.1 354.46 428.41 364.77 432.53 375.96 436.52 387.28 437.24 398.85 433.8 408.07 430.35 417.29 423.62 422.26 415.6 422.58 407.7 422.84 398.44 419.15 389.56 412.55 380.67 408.26 373.74 403.22 369.75 397.9 365.75 393.81 364.74 387.43 367.68 378.61 370.62 369.79 376.96 360.28 384.89 352.95 392.8 346.8 402.36 344.59 411.73 348.48" stroke-dasharray="9 10" transform="rotate(92.92, 400, 400)" opacity="0.72">
		</path>
		<path d="M408.28 359.16C420.67 367.63 427.24 385.91 422.78 398.04 418.3 410.15 405.07 410.92 393.12 401.88 381.16 396.83 374.67 386.93 378.7 375.23 382.71 363.52 395.88 354.44 408.28 359.16" stroke-dasharray="9 10" transform="rotate(96.96, 400, 400)" opacity="0.38">
		</path>
	</g>
</svg>
