<svg id="visual" viewBox="0 0 960 540" width="960" height="540" xmlns="http://www.w3.org/2000/svg" xmlns:xlink="http://www.w3.org/1999/xlink" version="1.1">
	<rect x="0" y="0" width="960" height="540" fill="#002233">
	</rect>
	<path d="M0 322L74 314L148 378L222 316L295 385L369 390L443 357L517 320L591 359L665 351L738 386L812 390L886 337L960 384L960 541L886 541L812 541L738 541L665 541L591 541L517 541L443 541L369 541L295 541L222 541L148 541L74 541L0 541Z" fill="#7fbeff">
	</path>
	<path d="M0 349L74 387L148 358L222 410L295 383L369 373L443 396L517 353L591 352L665 388L738 372L812 387L886 372L960 397L960 541L886 541L812 541L738 541L665 541L591 541L517 541L443 541L369 541L295 541L222 541L148 541L74 541L0 541Z" fill="#67b2ff">
	</path>
	<path d="M0 427L74 382L148 381L222 397L295 411L369 431L443 441L517 425L591 426L665 396L738 389L812 401L886 427L960 432L960 541L886 541L812 541L738 541L665 541L591 541L517 541L443 541L369 541L295 541L222 541L148 541L74 541L0 541Z" fill="#4ba6ff">
	</path>
	<path d="M0 453L74 468L148 424L222 461L295 452L369 447L443 439L517 453L591 432L665 470L738 421L812 433L886 437L960 445L960 541L886 541L812 541L738 541L665 541L591 541L517 541L443 541L369 541L295 541L222 541L148 541L74 541L0 541Z" fill="#3797f2">
	</path>
	<path d="M0 477L74 486L148 489L222 452L295 489L369 451L443 491L517 453L591 448L665 462L738 467L812 477L886 456L960 477L960 541L886 541L812 541L738 541L665 541L591 541L517 541L443 541L369 541L295 541L222 541L148 541L74 541L0 541Z" fill="#2f86d9">
	</path>
	<path d="M0 514L74 488L148 509L222 493L295 486L369 491L443 515L517 485L591 489L665 516L738 486L812 496L886 488L960 500L960 541L886 541L812 541L738 541L665 541L591 541L517 541L443 541L369 541L295 541L222 541L148 541L74 541L0 541Z" fill="#2875c0">
	</path>
</svg>
