<svg xmlns="http://www.w3.org/2000/svg" version="1.1" xmlns:xlink="http://www.w3.org/1999/xlink" xmlns:svgjs="http://svgjs.dev/svgjs" width="1440" height="560" preserveAspectRatio="none" viewBox="0 0 1440 560"><g mask="url(&quot;#SvgjsMask1021&quot;)" fill="none"><path d="M -478.41657085642277,521 C -382.42,461.8 -190.42,258.6 1.583429143577213,225 C 193.58,191.4 289.58,344.2 481.58342914357723,353 C 673.58,361.8 769.58,265.8 961.5834291435772,269 C 1153.58,272.2 1345.9,413.4 1441.5834291435772,369 C 1537.27,324.6 1440.32,111.4 1440,47" stroke="rgba(58, 160, 255, 1)" stroke-width="2"></path><path d="M -68.02156253766009,426 C 27.98,381.2 219.98,222 411.9784374623399,202 C 603.98,182 699.98,318.8 891.9784374623399,326 C 1083.98,333.2 1179.98,213.4 1371.97843746234,238 C 1563.98,262.6 1838.37,477.4 1851.97843746234,449 C 1865.58,420.6 1522.4,166.6 1440,96" stroke="rgba(58, 160, 255, 1)" stroke-width="2"></path><path d="M -89.20971845402096,252 C 6.79,291.6 198.79,450.8 390.79028154597904,450 C 582.79,449.2 678.79,245.6 870.790281545979,248 C 1062.79,250.4 1158.79,507.8 1350.790281545979,462 C 1542.79,416.2 1812.95,12.4 1830.790281545979,19 C 1848.63,25.6 1518.16,399.8 1440,495" stroke="rgba(58, 160, 255, 1)" stroke-width="2"></path><path d="M -335.2276332027225,51 C -239.23,145.4 -47.23,524.6 144.77236679727753,523 C 336.77,521.4 432.77,64.6 624.7723667972775,43 C 816.77,21.4 912.77,383.8 1104.7723667972775,415 C 1296.77,446.2 1517.73,225.4 1584.7723667972775,199 C 1651.82,172.6 1468.95,266.2 1440,283" stroke="rgba(58, 160, 255, 1)" stroke-width="2"></path></g><defs><mask id="SvgjsMask1021"><rect width="1440" height="560" fill="#ffffff"></rect></mask></defs></svg>